HIERARCHY
ROOT Hips
{
	OFFSET 0.000000 0.000000 0.000000
	CHANNELS 6 Xposition Yposition Zposition Xrotation Yrotation Zrotation
	JOINT LeftUpLeg_virtual
	{
		OFFSET 0.000000 0.000000 0.000000
		CHANNELS 3 Xrotation Yrotation Zrotation
		JOINT LeftUpLeg
		{
			OFFSET 15.427100 -6.655098 0.678600
			CHANNELS 3 Xrotation Yrotation Zrotation
			JOINT LeftLeg
			{
				OFFSET 4.081073 -39.591068 13.024000
				CHANNELS 3 Xrotation Yrotation Zrotation
				JOINT LeftFoot
				{
					OFFSET -4.081074 -37.707932 -15.979700
					CHANNELS 3 Xrotation Yrotation Zrotation
					JOINT LeftToeBase
					{
						OFFSET 5.346399 -15.068900 20.645000
						CHANNELS 3 Xrotation Yrotation Zrotation
						JOINT LeftToe_End
						{
							OFFSET 2.754700 0.931300 11.300900
							CHANNELS 3 Xrotation Yrotation Zrotation
							End Site
							{
								OFFSET 0 0 0
							}
						}
					}
				}
			}
		}
	}
	JOINT RightUpLeg_virtual
	{
		OFFSET 0.000000 0.000000 0.000000
		CHANNELS 3 Xrotation Yrotation Zrotation
		JOINT RightUpLeg
		{
			OFFSET -15.569500 -6.655098 0.678600
			CHANNELS 3 Xrotation Yrotation Zrotation
			JOINT RightLeg
			{
				OFFSET -4.081825 -39.591045 13.023800
				CHANNELS 3 Xrotation Yrotation Zrotation
				JOINT RightFoot
				{
					OFFSET 4.081824 -37.707954 -15.979600
					CHANNELS 3 Xrotation Yrotation Zrotation
					JOINT RightToeBase
					{
						OFFSET -5.346400 -15.068900 20.645000
						CHANNELS 3 Xrotation Yrotation Zrotation
						JOINT RightToe_End
						{
							OFFSET -2.754700 0.931300 11.300900
							CHANNELS 3 Xrotation Yrotation Zrotation
							End Site
							{
								OFFSET 0 0 0
							}
						}
					}
				}
			}
		}
	}
	JOINT Spine_virtual
	{
		OFFSET 0.000000 0.000000 0.000000
		CHANNELS 3 Xrotation Yrotation Zrotation
		JOINT Spine
		{
			OFFSET -0.279200 12.230698 -2.892100
			CHANNELS 3 Xrotation Yrotation Zrotation
			JOINT Spine1
			{
				OFFSET -0.232667 10.192268 -1.242267
				CHANNELS 3 Xrotation Yrotation Zrotation
				JOINT Spine1_split
				{
					OFFSET -0.232667 10.192268 -1.242267
					CHANNELS 3 Xrotation Yrotation Zrotation
					JOINT Spine2
					{
						OFFSET -0.232667 10.192268 -1.242267
						CHANNELS 3 Xrotation Yrotation Zrotation
						JOINT Neck_virtual
						{
							OFFSET 0.000000 0.000000 0.000000
							CHANNELS 3 Xrotation Yrotation Zrotation
							JOINT Neck
							{
								OFFSET -0.418800 17.814194 8.416900
								CHANNELS 3 Xrotation Yrotation Zrotation
								JOINT Head
								{
									OFFSET 0.000000 7.031097 3.806800
									CHANNELS 3 Xrotation Yrotation Zrotation
									JOINT HeadTop_End
									{
										OFFSET 0.000000 24.646606 12.978600
										CHANNELS 3 Xrotation Yrotation Zrotation
										End Site
										{
											OFFSET 0 0 0
										}
									}
								}
							}
						}
						JOINT LeftShoulder_virtual
						{
							OFFSET 0.000000 0.000000 0.000000
							CHANNELS 3 Xrotation Yrotation Zrotation
							JOINT LeftShoulder
							{
								OFFSET 8.476499 7.247704 -3.868750
								CHANNELS 3 Xrotation Yrotation Zrotation
								JOINT LeftShoulder_split
								{
									OFFSET 8.476499 7.247704 -3.868750
									CHANNELS 3 Xrotation Yrotation Zrotation
									JOINT LeftArm
									{
										OFFSET 9.308998 -2.777710 0.208600
										CHANNELS 3 Xrotation Yrotation Zrotation
										JOINT LeftForeArm
										{
											OFFSET 29.972298 0.000000 0.000000
											CHANNELS 3 Xrotation Yrotation Zrotation
											JOINT LeftHand
											{
												OFFSET 26.026505 0.000000 0.000000
												CHANNELS 3 Xrotation Yrotation Zrotation
												End Site
												{
													OFFSET 0 0 0
												}
											}
										}
									}
								}
							}
						}
						JOINT RightShoulder_virtual
						{
							OFFSET 0.000000 0.000000 0.000000
							CHANNELS 3 Xrotation Yrotation Zrotation
							JOINT RightShoulder
							{
								OFFSET -7.570500 7.247704 -3.868750
								CHANNELS 3 Xrotation Yrotation Zrotation
								JOINT RightShoulder_split
								{
									OFFSET -7.570500 7.247704 -3.868750
									CHANNELS 3 Xrotation Yrotation Zrotation
									JOINT RightArm
									{
										OFFSET -9.308998 -2.777710 0.208500
										CHANNELS 3 Xrotation Yrotation Zrotation
										JOINT RightForeArm
										{
											OFFSET -29.972300 0.000000 0.000000
											CHANNELS 3 Xrotation Yrotation Zrotation
											JOINT RightHand
											{
												OFFSET -26.026505 0.000000 0.000000
												CHANNELS 3 Xrotation Yrotation Zrotation
												End Site
												{
													OFFSET 0 0 0
												}
											}
										}
									}
								}
							}
						}
					}
				}
			}
		}
	}
}
MOTION
Frames: 8
Frame Time: 0.03333333
0.147293 90.968155 -4.960609 0.000000 0.000000 0.000000 3.885216 6.603704 -0.738486 -11.382725 8.433340 7.342950 23.310141 0.950522 -1.664570 -16.905283 1.934202 -6.786470 -1.073345 0.452358 0.882205 0.000000 0.000000 0.000000 4.166202 5.690134 -1.139889 -5.701231 -5.724073 -9.524387 19.627057 -4.763806 10.262514 -12.080380 -17.308842 0.769517 -1.340389 0.252832 -0.470240 0.000000 0.000000 0.000000 5.263299 3.113366 -1.998248 18.230373 -2.338297 -0.053590 0.199122 -0.097716 1.106485 1.151405 -0.605677 0.133894 0.000000 0.000000 0.000000 1.227715 -0.501138 0.443132 17.854133 2.978075 -0.698285 11.225848 2.290435 2.123862 0.000000 0.000000 0.000000 1.043846 0.038341 -0.064486 12.420584 -36.819439 -0.509450 1.936244 -1.587862 -3.233733 11.929004 17.527468 -47.109406 -1.312781 -36.932489 0.078905 0.000000 0.000000 0.000000 0.332096 -0.207330 0.703136 0.900130 -1.765233 7.458970 1.535271 6.176962 -1.423549 -0.260495 17.066867 36.655819 0.633969 15.295037 1.370636 0.000000 0.000000 0.000000 
0.211392 91.108765 -4.723797 0.000000 0.000000 0.000000 3.690805 6.643663 -0.639245 -10.957409 8.601623 7.182078 22.909510 0.995309 -1.602587 -16.879670 1.919316 -6.595554 -1.029686 0.462007 0.904354 0.000000 0.000000 0.000000 4.012884 5.696693 -1.047656 -5.391798 -5.667589 -9.602800 19.438753 -4.642015 10.190623 -11.879132 -17.361168 0.837975 -1.275413 0.241877 -0.462435 0.000000 0.000000 0.000000 5.022278 3.283726 -1.854378 17.631679 -2.371379 -0.045052 0.247213 -0.127333 1.018206 1.204381 -0.664684 0.095566 0.000000 0.000000 0.000000 1.255076 -0.547044 0.346716 17.823131 2.227588 -0.418748 11.270979 -0.225502 3.266082 0.000000 0.000000 0.000000 1.119826 -0.023596 -0.143176 12.133475 -36.548544 -0.491327 1.943251 -1.282811 -3.050147 13.460243 18.205547 -47.385991 -1.353034 -36.554817 0.011314 0.000000 0.000000 0.000000 0.381113 -0.254680 0.659838 0.620654 -1.945405 7.050784 1.740888 6.252786 -1.273988 0.928021 16.319526 36.715429 0.697043 15.241306 1.257937 0.000000 0.000000 0.000000 
0.255638 91.189697 -4.584389 0.000000 0.000000 0.000000 3.483060 6.644336 -0.583419 -10.614711 8.683141 7.019250 22.586155 0.968158 -1.506937 -16.883872 1.881928 -6.406668 -1.037386 0.465835 0.903512 0.000000 0.000000 0.000000 3.840719 5.661705 -0.994567 -5.129329 -5.623991 -9.624745 19.351748 -4.527372 10.160884 -11.743376 -17.409075 0.878147 -1.251729 0.228566 -0.456474 0.000000 0.000000 0.000000 4.782194 3.431438 -1.759725 17.126530 -2.325029 -0.029406 0.335747 -0.154800 1.001228 1.269045 -0.677192 0.067412 0.000000 0.000000 0.000000 1.271583 -0.579670 0.309209 17.683592 1.569636 -0.175866 11.249836 -2.314579 4.195046 0.000000 0.000000 0.000000 1.229110 -0.085115 -0.143293 11.852664 -36.064348 -0.454330 2.016987 -0.944575 -2.876740 14.475896 18.431855 -47.937341 -1.466477 -36.333328 -0.103133 0.000000 0.000000 0.000000 0.453388 -0.297989 0.669987 0.440200 -2.129726 6.795057 1.974348 6.471830 -1.173664 1.179137 15.743323 37.342102 0.684890 15.025921 1.192859 0.000000 0.000000 0.000000 
0.286132 91.201111 -4.509045 0.000000 0.000000 0.000000 3.256408 6.633929 -0.552607 -10.362208 8.626395 6.857705 22.411649 0.851517 -1.382914 -16.859062 1.817261 -6.251966 -1.041368 0.465254 0.870312 0.000000 0.000000 0.000000 3.627688 5.627630 -0.961863 -4.897222 -5.583852 -9.611182 19.377004 -4.440510 10.160837 -11.693675 -17.477759 0.880533 -1.268365 0.213395 -0.456881 0.000000 0.000000 0.000000 4.531120 3.576503 -1.697659 16.729409 -2.205797 -0.008288 0.444847 -0.171686 1.046156 1.283306 -0.626343 0.000356 0.000000 0.000000 0.000000 1.262660 -0.593336 0.319208 17.486229 1.023512 -0.006132 11.214187 -3.984435 4.947965 0.000000 0.000000 0.000000 1.342590 -0.138251 -0.087737 11.583647 -35.471344 -0.444900 2.028497 -0.560030 -2.751708 14.991183 18.219226 -48.608978 -1.675791 -36.013013 -0.263525 0.000000 0.000000 0.000000 0.523971 -0.325257 0.720669 0.370127 -2.292186 6.775232 2.193286 6.693146 -1.073393 0.631558 15.385078 38.480213 0.632958 14.595848 1.142412 0.000000 0.000000 0.000000 
0.307837 91.156754 -4.468487 0.000000 0.000000 0.000000 3.005676 6.644861 -0.519305 -10.152278 8.421495 6.676088 22.361554 0.680289 -1.218451 -16.814438 1.767703 -6.110652 -0.977594 0.461724 0.791346 0.000000 0.000000 0.000000 3.370095 5.641611 -0.927544 -4.678671 -5.560329 -9.602908 19.498921 -4.387041 10.169427 -11.732516 -17.585203 0.860497 -1.300942 0.198814 -0.465941 0.000000 0.000000 0.000000 4.264252 3.757005 -1.639692 16.453299 -2.021905 0.011730 0.555035 -0.175094 1.128955 1.242311 -0.577657 -0.107183 0.000000 0.000000 0.000000 1.214916 -0.585398 0.363722 17.275720 0.612838 0.067159 11.207882 -5.278756 5.553132 0.000000 0.000000 0.000000 1.429140 -0.172201 -0.005890 11.326790 -34.864168 -0.515854 1.967497 -0.178991 -2.703936 15.074325 17.496085 -49.310243 -1.947559 -35.554994 -0.440117 0.000000 0.000000 0.000000 0.579583 -0.317294 0.791791 0.412975 -2.356458 7.078803 2.403446 6.866841 -1.037275 -0.481560 15.249589 40.080810 0.593204 13.949989 1.075153 0.000000 0.000000 0.000000 
0.322484 91.077400 -4.447403 0.000000 0.000000 0.000000 2.741599 6.700468 -0.455958 -9.917887 8.111341 6.451215 22.329196 0.488044 -1.018229 -16.807639 1.752303 -5.968649 -0.841410 0.456784 0.671479 0.000000 0.000000 0.000000 3.062256 5.733439 -0.865909 -4.449575 -5.583044 -9.636272 19.661632 -4.373791 10.173700 -11.823554 -17.736338 0.847047 -1.338400 0.186271 -0.482767 0.000000 0.000000 0.000000 3.965397 4.010936 -1.547210 16.277927 -1.785137 0.029494 0.653065 -0.166572 1.226511 1.196688 -0.526667 -0.150604 0.000000 0.000000 0.000000 1.135622 -0.558550 0.431208 17.099213 0.356361 0.037131 11.260918 -6.209145 6.011314 0.000000 0.000000 0.000000 1.475062 -0.185589 0.082773 11.079657 -34.292734 -0.714140 1.844113 0.160039 -2.724391 14.792330 16.285662 -50.025419 -2.195659 -35.072735 -0.591029 0.000000 0.000000 0.000000 0.619391 -0.278421 0.871951 0.556035 -2.230513 7.696045 2.536524 6.876392 -1.018123 -1.987193 15.250860 42.035429 0.590626 13.345929 0.957607 0.000000 0.000000 0.000000 
0.327157 90.991776 -4.436672 0.000000 0.000000 0.000000 2.449277 6.836028 -0.351495 -9.608957 7.783609 6.188067 22.217886 0.288225 -0.817309 -16.822172 1.746232 -5.865285 -0.754116 0.450526 0.557637 0.000000 0.000000 0.000000 2.706144 5.894185 -0.764611 -4.198596 -5.689134 -9.733335 19.809285 -4.399592 10.161678 -11.917363 -17.934630 0.870886 -1.392742 0.176865 -0.505783 0.000000 0.000000 0.000000 3.625257 4.346028 -1.403710 16.172524 -1.510003 0.047568 0.728199 -0.148790 1.323862 1.209775 -0.556342 -0.206105 0.000000 0.000000 0.000000 1.033300 -0.518655 0.516461 16.982704 0.262663 -0.065581 11.394466 -6.802316 6.321974 0.000000 0.000000 0.000000 1.476253 -0.182841 0.168814 10.846404 -33.806745 -1.047771 1.673648 0.418566 -2.743804 14.220937 14.664541 -50.787094 -2.335801 -34.695715 -0.672848 0.000000 0.000000 0.000000 0.640808 -0.218247 0.958706 0.771663 -1.854359 8.561010 2.549323 6.741187 -1.055562 -3.754762 15.332801 44.269697 0.646407 12.908121 0.777533 0.000000 0.000000 0.000000 
0.327884 90.911690 -4.435913 0.000000 0.000000 0.000000 2.118281 7.025245 -0.209374 -9.248813 7.488158 5.903400 22.005297 0.077727 -0.639125 -16.796803 1.732962 -5.817454 -0.784843 0.439827 0.477126 0.000000 0.000000 0.000000 2.310833 6.138887 -0.628603 -3.920643 -5.878991 -9.889819 19.920721 -4.454623 10.135014 -11.975648 -18.169169 0.945368 -1.473537 0.172161 -0.532738 0.000000 0.000000 0.000000 3.241378 4.754447 -1.215551 16.093584 -1.213010 0.071455 0.782762 -0.128155 1.415826 1.304886 -0.661971 -0.261427 0.000000 0.000000 0.000000 0.913663 -0.474560 0.614775 16.915203 0.307293 -0.202062 11.585554 -7.107281 6.497020 0.000000 0.000000 0.000000 1.438946 -0.170861 0.250510 10.632426 -33.400998 -1.488315 1.488775 0.587215 -2.702629 13.365363 12.778445 -51.640981 -2.317066 -34.344496 -0.670668 0.000000 0.000000 0.000000 0.647824 -0.149675 1.052416 1.031528 -1.187636 9.587436 2.440759 6.552166 -1.161089 -5.653292 15.443483 46.679623 0.742269 12.627955 0.547548 0.000000 0.000000 0.000000 
